<svg version="1.0" xmlns="http://www.w3.org/2000/svg" width="87.000000pt" height="87.000000pt" viewBox="0 0 87.000000 87.000000" preserveAspectRatio="xMidYMid meet"> <metadata> Created by potrace 1.16, written by Peter Selinger 2001-2019 </metadata> <g transform="translate(0.000000,87.000000) scale(0.100000,-0.100000)" fill="#fff" stroke="none"> <path d="M0 850 c0 -16 8 -19 55 -22 l56 -3 79 -174 c44 -95 82 -182 86 -193 4 -13 -6 -38 -31 -74 -30 -45 -36 -63 -33 -97 l3 -42 308 -3 c290 -2 308 -1 305 15 -3 17 -25 18 -286 21 l-282 2 0 22 c0 13 15 44 32 70 l33 48 200 2 199 3 74 160 c40 88 71 169 70 180 -3 20 -11 20 -349 23 l-347 2 -16 40 -16 40 -70 0 c-63 0 -70 -2 -70 -20z m757 -247 l-63 -138 -185 -3 -184 -2 -59 132 c-33 73 -61 136 -63 141 -2 4 135 7 306 7 l310 0 -62 -137z"/> <path d="M211 124 c-27 -34 -27 -64 0 -98 16 -20 29 -26 60 -26 50 0 79 27 79 75 0 48 -29 75 -79 75 -31 0 -44 -6 -60 -26z"/> <path d="M670 130 c-24 -24 -26 -77 -4 -108 12 -17 25 -22 58 -22 53 0 80 26 80 75 0 19 -8 43 -19 55 -25 27 -88 27 -115 0z"/> </g> </svg>