<?xml version="1.0" standalone="no"?>
<!DOCTYPE svg PUBLIC "-//W3C//DTD SVG 20010904//EN"
 "http://www.w3.org/TR/2001/REC-SVG-20010904/DTD/svg10.dtd">
<svg version="1.0" xmlns="http://www.w3.org/2000/svg"
 width="81.000000pt" height="72.000000pt" viewBox="0 0 81.000000 72.000000"
 preserveAspectRatio="xMidYMid meet">

<g transform="translate(0.000000,72.000000) scale(0.100000,-0.100000)"
fill="#00963e" stroke="none">
<path d="M119 692 c-77 -40 -114 -102 -114 -191 1 -44 7 -77 19 -101 10 -19
100 -117 200 -218 l181 -183 181 183 c100 101 190 199 200 218 12 23 18 57 19
100 0 83 -34 147 -100 186 -87 50 -176 41 -250 -27 -23 -21 -46 -39 -50 -39
-4 0 -27 18 -50 39 -72 66 -151 77 -236 33z m165 -17 c18 -9 50 -34 71 -55 22
-22 44 -40 50 -40 6 0 28 18 50 40 21 21 53 46 71 55 106 50 240 -31 252 -154
8 -88 -6 -110 -197 -304 l-176 -179 -176 179 c-191 194 -205 216 -197 304 12
123 146 204 252 154z"/>
</g>
</svg>