<svg xmlns="http://www.w3.org/2000/svg" width="30" height="30" viewBox="0 0 30 30">
    <g fill="none" fill-rule="evenodd">
        <path d="M0 0H30V30H0z"/>
        <path fill="#00963e" fill-rule="nonzero"
              d="M14.7 19.147c5.538 0 10.541 3.037 13.143 7.813.127.233.041.524-.192.651s-.524.041-.65-.192c-2.436-4.47-7.118-7.312-12.301-7.312s-9.864 2.842-12.3 7.312c-.127.233-.418.32-.65.192-.234-.127-.32-.418-.193-.65 2.602-4.777 7.605-7.814 13.143-7.814zM14.589 1.5c4.156 0 7.524 3.369 7.524 7.526 0 4.156-3.368 7.525-7.524 7.525-4.157 0-7.526-3.369-7.526-7.525 0-4.157 3.368-7.526 7.526-7.526zm0 .96c-3.628 0-6.566 2.939-6.566 6.566 0 3.626 2.939 6.565 6.566 6.565 3.626 0 6.564-2.94 6.564-6.565 0-3.627-2.938-6.566-6.564-6.566z"/>
    </g>
</svg>