<?xml version="1.0" encoding="UTF-8"?><!DOCTYPE svg PUBLIC "-//W3C//DTD SVG 1.1//EN"
        "http://www.w3.org/Graphics/SVG/1.1/DTD/svg11.dtd">

<svg xmlns="http://www.w3.org/2000/svg" width="30" height="31" viewBox="0 0 30 31">
    <g fill="none" fill-rule="evenodd">
        <path d="M0 0H30V30H0z" transform="translate(0 .522)"/>
        <path fill="#00963e" fill-rule="nonzero" d="M9.681 23.49c1.265 0 2.29 1.027 2.29 2.292 0 1.264-1.025 2.29-2.29 2.29-1.264 0-2.29-1.026-2.29-2.29 0-1.265 1.026-2.292 2.29-2.292zm13.977 0c1.262 0 2.287 1.027 2.287 2.292 0 1.264-1.024 2.29-2.287 2.29-1.265 0-2.29-1.026-2.29-2.29 0-1.265 1.025-2.292 2.29-2.292zm-13.977.96c-.733 0-1.33.597-1.33 1.332 0 .734.596 1.33 1.33 1.33.735 0 1.33-.596 1.33-1.33 0-.735-.596-1.332-1.33-1.332zm13.977 0c-.734 0-1.33.597-1.33 1.332 0 .734.595 1.33 1.33 1.33.732 0 1.327-.596 1.327-1.33 0-.735-.595-1.332-1.327-1.332zM5.03 1.371c.155 0 .299.075.388.197l.047.08 1.16 2.476H27.59c.32 0 .542.304.466.599l-.029.08-4.54 10.02c-.078.172-.25.282-.438.282H11.111l-2.114 3.038v1.599h17.159c.235 0 .431.17.472.394l.008.086c0 .236-.17.432-.394.472l-.086.008H8.518c-.236 0-.432-.17-.473-.394l-.007-.086v-2.229c0-.065.013-.13.038-.189l.048-.085 2.186-3.144-4.428-9.772-.004-.009-1.153-2.463H1.778c-.235 0-.431-.17-.472-.394l-.008-.086c0-.236.17-.432.394-.472l.086-.008H5.03zm21.816 3.713H7.063l4.107 9.061h11.571l4.105-9.061z" transform="translate(0 .522)"/>
    </g>
</svg>
