<svg id="Слой_1"
     data-name="Слой 1" xmlns="http://www.w3.org/2000/svg"
     viewBox="0 0 350 39.12">
    <defs>
        <style>
            .cls-1,.cls-2{fill:#fff;}.cls-1,.cls-3,.cls-4{fill-rule:evenodd;}.cls-3{fill:#1e8c44;}.cls-4,.cls-5{fill:#fff;}
        </style>
    </defs>
    <title>Логотип аптека Эвалар</title>
    <path class="cls-1"
          d="M193.06,56v.95h8.61V56l-.19,0a3,3,0,0,1-1.87-.65,3.23,3.23,0,0,1-.48-.56c-.16-.24-.3-.49-.44-.74-.22-.43-.42-.88-.62-1.34l-7.3-17.44H190L182.6,52.48a18.72,18.72,0,0,1-.9,1.86,5.19,5.19,0,0,1-.79,1.07,3.91,3.91,0,0,1-1.59.55l-.16,0v.93h6.94V56l-.17,0a4.19,4.19,0,0,1-1.85-.42.89.89,0,0,1-.38-.69,5.12,5.12,0,0,1,.5-1.73l1.36-3.18h7.81l1.21,2.88a8.78,8.78,0,0,1,.37,1,3.72,3.72,0,0,1,.23,1.09.87.87,0,0,1-.37.71,3.19,3.19,0,0,1-1.57.37Zm-.32-7.55h-6.58l3.33-7.73,3.25,7.73Zm138,7.55v.95h8.6V56l-.18,0a3,3,0,0,1-1.87-.65,2.55,2.55,0,0,1-.48-.56,6.26,6.26,0,0,1-.44-.74c-.23-.43-.43-.88-.62-1.34l-7.3-17.44h-.8l-7.38,17.26a16.74,16.74,0,0,1-.9,1.86,4.56,4.56,0,0,1-.79,1.07A3.82,3.82,0,0,1,317,56l-.16,0v.93h6.94V56l-.18,0a4.26,4.26,0,0,1-1.85-.42.89.89,0,0,1-.38-.69,5.14,5.14,0,0,1,.51-1.73l1.36-3.18H331l1.21,2.88c.14.32.26.64.37,1a3.72,3.72,0,0,1,.23,1.09.87.87,0,0,1-.37.71,3.22,3.22,0,0,1-1.57.37Zm-.33-7.55h-6.57l3.33-7.73,3.24,7.73ZM221.39,56v.95h9.34V56h-.19a4.23,4.23,0,0,1-2.34-.55,4.67,4.67,0,0,1-.48-2.48V39.68a4.68,4.68,0,0,1,.48-2.48,4.15,4.15,0,0,1,2.34-.55h.19v-1h-22v1H209a4.13,4.13,0,0,1,2.34.55,4.68,4.68,0,0,1,.48,2.48V52.92a4.67,4.67,0,0,1-.48,2.48A4.21,4.21,0,0,1,209,56h-.19v.95h9.36V56h-.19a4.11,4.11,0,0,1-2.34-.55,4.59,4.59,0,0,1-.48-2.48V37.22h9.27v15.7c0,.62,0,2-.48,2.48a4.23,4.23,0,0,1-2.32.55Zm34-15h1l-.25-5.27H238.68L238.42,41h1l0-.18a4.31,4.31,0,0,1,.64-2.15,2.6,2.6,0,0,1,1.27-1,4.15,4.15,0,0,1,.78-.16c.41,0,.82,0,1.23,0h2.31V53.11a5.37,5.37,0,0,1-.3,2.13,2,2,0,0,1-1.72.71h-.93v1h9.22V56H251a2.13,2.13,0,0,1-1.65-.58h0a5,5,0,0,1-.36-2.26V37.38h2.74a4.38,4.38,0,0,1,2,.4A2.91,2.91,0,0,1,254.89,39a3.51,3.51,0,0,1,.29.9c.06.29.11.59.14.88l0,.16Zm24.27-.32h.95l-.24-5H263.89v1h.93a2.3,2.3,0,0,1,1.7.54h0a5.16,5.16,0,0,1,.35,2.31V53c0,.42,0,.84,0,1.25a3.32,3.32,0,0,1-.13.7,1.09,1.09,0,0,1-.56.63h0a2.68,2.68,0,0,1-1.31.33h-.93v1h16.39l1.93-5.61h-1l-.06.1c-.25.49-.52,1-.81,1.43a9.29,9.29,0,0,1-1.1,1.4,3.63,3.63,0,0,1-1.46.92,5.65,5.65,0,0,1-1,.17c-.5,0-1,.06-1.51.06h-3.53a2.73,2.73,0,0,1-1.07-.15.76.76,0,0,1-.35-.38,2.09,2.09,0,0,1-.08-.51c0-.36,0-.73,0-1.1V46.57h4.39a4.64,4.64,0,0,1,1.85.29,1.64,1.64,0,0,1,.81.75,2.64,2.64,0,0,1,.2.66c.09.41.15.82.22,1.23l0,.17h.93V42h-.95v.18a3.45,3.45,0,0,1-.82,2.36,4,4,0,0,1-2.25.48h-4.39V37.22h5.52c.43,0,.87,0,1.3.05a3.46,3.46,0,0,1,.79.16h0a2.36,2.36,0,0,1,1.07.86,4.05,4.05,0,0,1,.35.83,13.44,13.44,0,0,1,.33,1.36l0,.16Zm19.33-4v-1h-9.36v1h.19a4.11,4.11,0,0,1,2.34.55,4.6,4.6,0,0,1,.49,2.48V52.92c0,.62,0,2-.5,2.48a4.22,4.22,0,0,1-2.33.55h-.19v.95H299V56h-.18a4.14,4.14,0,0,1-2.35-.55,4.68,4.68,0,0,1-.48-2.48v-6h.13a4.3,4.3,0,0,1,.72,0,2.67,2.67,0,0,1,1,.29,5.12,5.12,0,0,1,1.31,1,8.8,8.8,0,0,1,1.56,2.42c.36.77.72,1.54,1.11,2.3.2.41.42.81.64,1.2a9.74,9.74,0,0,0,.6,1,4.27,4.27,0,0,0,1.77,1.49,6.1,6.1,0,0,0,2.24.34l1.52,0h1.78V56a4.34,4.34,0,0,1-1.09-.15,4.44,4.44,0,0,1-1.83-1.25,4.53,4.53,0,0,1-.43-.55,6.93,6.93,0,0,1-.44-.7c-.31-.54-.6-1.11-.87-1.67s-.5-1-.76-1.51l-.36-.66-.33-.53A7.57,7.57,0,0,0,300,46l-.35,0,.3-.19A9.66,9.66,0,0,0,303.2,41c.21-.56.42-1.14.66-1.69a6.52,6.52,0,0,1,.43-.88A.85.85,0,0,1,305,38a4,4,0,0,1,1.16.42,4.09,4.09,0,0,0,1.53.52,1.75,1.75,0,0,0,1.2-.49,1.49,1.49,0,0,0,.53-1.15,1.77,1.77,0,0,0-.29-1,2.71,2.71,0,0,0-2.27-.83,4.94,4.94,0,0,0-2.39.55A3.65,3.65,0,0,0,303,37.28a9.55,9.55,0,0,0-.51,1c-.23.52-.43,1-.63,1.56s-.43,1.12-.67,1.67c-.16.38-.33.76-.52,1.12a5.91,5.91,0,0,1-1.24,1.53,4,4,0,0,1-1.38.91,4.19,4.19,0,0,1-.86.15c-.36,0-.72.05-1.07.05h-.14V39.68a4.67,4.67,0,0,1,.48-2.48,4.14,4.14,0,0,1,2.35-.55Z"
          transform="translate(-173.38 -26.51)"/>
    <path class="cls-2"
          d="M374.79,36.35a9.86,9.86,0,0,0-5.23-1.4,13.44,13.44,0,0,0-4.52.91,2.88,2.88,0,0,1-.78.21c-.11,0-.43-.09-.91-.94l-.08-.15h-1l-.38,7.52H363l0-.25a6.18,6.18,0,0,1,2.4-4.1,6.71,6.71,0,0,1,4.1-1.55,5.89,5.89,0,0,1,4.31,2c1.26,1.32,2,3.44,2.25,6.32h-8v1.71h8.06a10.93,10.93,0,0,1-1,4.67,7.84,7.84,0,0,1-2.55,3.09,6.3,6.3,0,0,1-3.6,1,8.4,8.4,0,0,1-7-3.81l-.17-.24-.85.66.13.22a9.48,9.48,0,0,0,8.45,4.92,10.09,10.09,0,0,0,7.7-3.21,11.11,11.11,0,0,0,3-7.85,10.85,10.85,0,0,0-1.6-5.89A12,12,0,0,0,374.79,36.35Zm30.74,10.77a6.26,6.26,0,0,0-2.48-1.32,5.45,5.45,0,0,0,2.08-1.59,4.75,4.75,0,0,0,1-3,5.06,5.06,0,0,0-1.27-3.4,6.79,6.79,0,0,0-3.65-2,18,18,0,0,0-4.09-.37h-9.24v1.14H389a2,2,0,0,1,1.56.57c.13.16.37.66.37,2.24V52.76a4.5,4.5,0,0,1-.3,2.12,1.83,1.83,0,0,1-1.63.7h-1.07v1.14H398a15.91,15.91,0,0,0,5.3-.67,5.85,5.85,0,0,0,2.82-2.17,5.41,5.41,0,0,0,1-3.12A4.85,4.85,0,0,0,405.53,47.12ZM394.39,37.3a10.35,10.35,0,0,1,2.46-.27A6.15,6.15,0,0,1,401,38.24a3.66,3.66,0,0,1,1.39,2.88,3.84,3.84,0,0,1-.56,2,3.29,3.29,0,0,1-1.58,1.36A8.59,8.59,0,0,1,397,45c-.58,0-1.11,0-1.58-.05s-.72-.07-1-.12Zm7.24,16.58a6.07,6.07,0,0,1-4,1.18,14.83,14.83,0,0,1-3.21-.36v-8a7.66,7.66,0,0,1,.81-.07c.44,0,1,0,1.6,0a9,9,0,0,1,3.55.62,4.1,4.1,0,0,1,2,1.64A4.21,4.21,0,0,1,403,51,3.58,3.58,0,0,1,401.63,53.88ZM433.51,55a7.6,7.6,0,0,1-1.5-2.59L424.72,35h-.92l-7.36,17.23a9.11,9.11,0,0,1-1.66,2.88,3.17,3.17,0,0,1-1.53.52l-.24,0v1.1h7.1V55.6l-.27,0a3.54,3.54,0,0,1-1.78-.41.77.77,0,0,1-.35-.6,4.93,4.93,0,0,1,.5-1.69l1.33-3.1h7.64l1.18,2.81a6.1,6.1,0,0,1,.59,2,.78.78,0,0,1-.33.63,2.81,2.81,0,0,1-1.51.35h-.27v1.13h8.75V55.59h-.27A3,3,0,0,1,433.51,55Zm-13.25-6.87,3.17-7.35,3.08,7.35Zm25.58-11.52h.28c1.5,0,2.06.31,2.26.52s.46.8.46,2.4v4.34c0,4.05-.28,6.83-.82,8.26s-1.15,2-1.91,2a1.88,1.88,0,0,1-1.06-.45,2.16,2.16,0,0,0-1.26-.51,1.59,1.59,0,0,0-1.17.5,1.66,1.66,0,0,0-.47,1.18,2,2,0,0,0,.7,1.5,2.78,2.78,0,0,0,1.94.63,4.93,4.93,0,0,0,4.42-2.76c1-1.81,1.55-5.59,1.55-11.55V37.13h5.84V52.66c0,1.59-.25,2.18-.46,2.39s-.76.48-2.26.53h-.28v1.13h9.49V55.59h-.28c-1.5,0-2.06-.31-2.27-.53s-.45-.8-.45-2.39V39.49c0-1.6.25-2.19.45-2.4s.77-.48,2.27-.52h.28V35.43H445.84ZM490.34,55a7.74,7.74,0,0,1-1.51-2.59L481.55,35h-.92l-7.36,17.23a9.11,9.11,0,0,1-1.66,2.88,3.22,3.22,0,0,1-1.53.52l-.24,0v1.1h7.1V55.6l-.27,0a3.64,3.64,0,0,1-1.79-.41.76.76,0,0,1-.34-.6,4.93,4.93,0,0,1,.5-1.69l1.33-3.1H484l1.18,2.81a6.1,6.1,0,0,1,.59,2,.78.78,0,0,1-.33.63,2.81,2.81,0,0,1-1.51.35h-.27v1.13h8.75V55.59h-.27A3,3,0,0,1,490.34,55Zm-13.25-6.87,3.16-7.35,3.09,7.35Zm37.32-10a6.24,6.24,0,0,0-2.83-2,13.56,13.56,0,0,0-4.48-.59h-7.88v1.14h1.06a2,2,0,0,1,1.56.57c.13.15.34.63.34,2.24V52.76a4.51,4.51,0,0,1-.26,2.09,1.8,1.8,0,0,1-1.64.73h-1.06v1.14h9.45V55.58h-1.08A1.92,1.92,0,0,1,506,55c-.13-.15-.35-.63-.35-2.24V47.08c.54.11,1.06.2,1.54.26a14.28,14.28,0,0,0,1.66.11,6.91,6.91,0,0,0,4.92-1.67,5.74,5.74,0,0,0,1.77-4.34A5.27,5.27,0,0,0,514.41,38Zm-4,6.7a3.36,3.36,0,0,1-2.53,1.14,8.86,8.86,0,0,1-1-.08c-.34,0-.74-.1-1.18-.18V37.47a8.51,8.51,0,0,1,1.71-.23,4.31,4.31,0,0,1,2.15.53,3.57,3.57,0,0,1,1.44,1.6,5.46,5.46,0,0,1,.53,2.38A4.23,4.23,0,0,1,510.44,44.74Z"
          transform="translate(-173.38 -26.51)"/>
</svg>