<svg id="Слой_1" data-name="Слой 1" xmlns="http://www.w3.org/2000/svg" xmlns:xlink="http://www.w3.org/1999/xlink" viewBox="0 0 1323.7 646"><defs><style>.cls-1{fill:none;}.cls-2{clip-path:url(#clip-path);}.cls-3{fill:url(#Безымянный_градиент);}.cls-4,.cls-8{fill:#fff;}.cls-5{clip-path:url(#clip-path-2);}.cls-6{fill:url(#Безымянный_градиент_2);}.cls-7,.cls-9{fill:#00963e;}.cls-7,.cls-8{fill-rule:evenodd;}</style><clipPath id="clip-path" transform="translate(-26.65 -63)"><path class="cls-1" d="M417.27,388.62c0-126.83,103.18-230,230-230s230,103.18,230,230-103.18,230-230,230-230-103.17-230-230m-89.87,0c0,176.37,143.49,319.86,319.87,319.86S967.14,565,967.14,388.62,823.64,68.75,647.27,68.75,327.4,212.24,327.4,388.62"/></clipPath><linearGradient id="Безымянный_градиент" x1="-0.99" y1="769.29" x2="3.15" y2="769.29" gradientTransform="matrix(131.34, 0, 0, -131.34, 158.55, 101366.47)" gradientUnits="userSpaceOnUse"><stop offset="0" stop-color="#8743c9"/><stop offset="0.01" stop-color="#8743c9"/><stop offset="0.24" stop-color="#518edb"/><stop offset="0.43" stop-color="#28c8e8"/><stop offset="0.53" stop-color="#18deed"/><stop offset="0.59" stop-color="#17dae3"/><stop offset="0.69" stop-color="#14cfc9"/><stop offset="0.82" stop-color="#0fbd9f"/><stop offset="0.97" stop-color="#09a464"/><stop offset="1" stop-color="#079e56"/></linearGradient><clipPath id="clip-path-2" transform="translate(-26.65 -63)"><path class="cls-1" d="M51.5,226.26l89.72,4.93c2.05-37.31,44.76-72.58,87.89-72.58,41.86,0,75.92,30.5,75.92,68,0,59.39-55.42,74.29-88.45,77.88L175.32,309l3,102.12,39.07,4.11C296.92,423.56,342.55,463,342.55,523.3c0,52.84-49.62,95.84-110.61,95.84-64.46,0-112.64-57.65-115.57-109.39l-89.72,5.07C32.6,620.07,126.61,709,231.94,709c110.54,0,200.47-83.31,200.47-185.7,0-61.56-28.34-129.16-101.55-167.83,40.59-30,64-75,64-128.87,0-87-74.37-157.85-165.78-157.85-91.59,0-172.93,72.13-177.61,157.51"/></clipPath><linearGradient id="Безымянный_градиент_2" x1="-0.99" y1="769.29" x2="3.15" y2="769.29" gradientTransform="matrix(131.34, 0, 0, -131.34, 158.55, 101366.54)" xlink:href="#Безымянный_градиент"/></defs><title>Лого на сайт</title><g class="cls-2"><rect class="cls-3" x="300.75" y="5.75" width="639.73" height="639.73"/></g><path class="cls-4" d="M647.27,669.58c-154.92,0-281-126-281-281s126-281,281-281,281,126,281,281-126,281-281,281m0-548.11c-147.31,0-267.14,119.85-267.14,267.15S500,655.75,647.27,655.75,914.41,535.92,914.41,388.62,794.57,121.47,647.27,121.47" transform="translate(-26.65 -63)"/><g class="cls-5"><rect class="cls-6" y="5.75" width="405.75" height="640.25"/></g><path class="cls-4" d="M231.94,671c-85.85,0-162.47-72.5-167.33-158.3l13.8-.79c4.38,77.39,76.12,145.27,153.53,145.27,81.95,0,148.63-60,148.63-133.86,0-80.88-59.53-135.43-159.23-145.92l-6-.63-1-33.79,6.35-.69c76.61-8.33,122.36-51.57,122.36-115.67,0-58.45-51.11-106-113.94-106-63.87,0-122.68,50.7-125.85,108.5l-13.8-.76C93,163.58,158.27,106.77,229.11,106.77c70.45,0,127.76,53.75,127.76,119.83,0,69-49,117.82-128.34,128.64l.27,9.08c103.82,12.87,165.59,72,165.59,159,0,81.43-72.88,147.68-162.45,147.68" transform="translate(-26.65 -63)"/><path class="cls-7" d="M583.69,391.17c.32-104,29.18-222.65,108.42-285.11C761.45,51.4,835.56,61.8,915.73,72.5c57.66,7.71,128.24,17.21,180,16.87,25.57-.21,53-1.51,73.82-20.75-.41,16.59-12,39.82-24.56,53.45,61.33,1.1,153.29,2.84,202.31-59.07,12.13,100.43-12.52,199.82-66.55,268.85-41.53,53.16-101.57,87.14-168.12,93-113.37,10-222.55-60.29-331.19-84.43-75.31-16.76-141.94-8-197.77,50.77" transform="translate(-26.65 -63)"/><path class="cls-8" d="M873.32,337.58c83.42,15.82,168,32.6,244.85-.3-28.24,90-155.91,41.79-244.85.3" transform="translate(-26.65 -63)"/><path class="cls-8" d="M745.21,281c22.81-9,36.25-44.38,38.61-66,.33-2.7.55-5.29.77-7.9-19,36.48-31.7,17.65-46.08,11.25-9.73-4.31-20.81,5.74-18.72,2.51,23.48-38,28-11.72,46.62-11.27,6.16.23,14.61-4.65,18.3-6.38.73-45.15-31-79.46-50-14.19-11.16,0-27.28,0-35.93.1,11.33-35.06,57.76-68.4,95.84-31.91,34.51,31.59,24.67,120.58-52.59,133.57a45,45,0,0,1-24-2.9c-9-3.16-15.4-11.17-15.4-20.49,0-12,10.73-21.86,23.91-21.86s23.8,9.85,23.8,21.86A20.87,20.87,0,0,1,745.21,281" transform="translate(-26.65 -63)"/><path class="cls-4" d="M1116.11,237.36c0-5.3-.55-7.9-1.6-7.9-.66,0-4.12,2.37-10.52,7.36-5.19,4.12-7.8,8.84-7.8,14.2a13.27,13.27,0,0,0,2.17,7.66,6.6,6.6,0,0,0,5.71,3.28,11.1,11.1,0,0,0,6-2.09,12.86,12.86,0,0,0,4.67-5.08,24,24,0,0,0,1.4-8.43Zm21.12,12.35a41.45,41.45,0,0,0,.64,8.77c.41,1.94,1.3,2.79,2.69,2.79a5.89,5.89,0,0,0,3.66-1.81c.87-.78,2.3-2.2,3.49-2.2s1.94.78,1.94,2.61c0,2.18-1.28,4.55-3.77,7.16-5.43,5.62-10.71,8.55-16.11,8.55a10,10,0,0,1-6.73-2,18,18,0,0,1-4.11-7,20.4,20.4,0,0,0-1.4-3.48c-.57-.95-1-1.06-1.73-.29a41.12,41.12,0,0,0-3.78,3.66,45.7,45.7,0,0,1-9.34,7.58c-12.43,7.68-26.8.65-26.8-15.17,0-11.33,6.92-18.48,15.79-23.91l21.95-13.32c2.91-1.84,2.49-1.4,2.49-4.77v-7.67c0-4.67.25-14.85-6.59-14.85-4.35,0-7.91,4-10.51,11.82a32.81,32.81,0,0,1-2.48,5.86c-2.49,4.18-20.35,12.87-20.35,3.22,0-6.17,5.53-13.63,10-17.41,7.35-6.6,16.45-10,27.39-10,15,0,23.7,5.87,23.7,21Z" transform="translate(-26.65 -63)"/><path class="cls-4" d="M1183.3,249c0,14.17,3.35,21.22,10,21.22a13.08,13.08,0,0,0,10.6-5.2,33.07,33.07,0,0,0,6.09-13,64.49,64.49,0,0,0,1.93-15.68,74.31,74.31,0,0,0-1.83-16,38.35,38.35,0,0,0-6-13.63c-2.73-3.67-6.2-5.62-10.4-5.62-4,0-7,2.05-9.55,5.84-.63,1-.84,2.92-.84,5.86Zm0-50.1c5.74-5.54,12.24-11,20.34-11a25.94,25.94,0,0,1,16.24,5.74,39.62,39.62,0,0,1,11.26,15.58,52.1,52.1,0,0,1,4.11,21,59.48,59.48,0,0,1-4.78,23.81c-3.23,7.24-7.56,12.88-13.2,17a30.44,30.44,0,0,1-18.5,6.28,35,35,0,0,1-12.22-2.5,2.47,2.47,0,0,1-1-.33,3.27,3.27,0,0,0-1.19-.2c-.79,0-1.09,1.93-1.09,5.94V302a9.91,9.91,0,0,0,1.51,4.67c1,1.83,3.16,3,6.49,3.57,3.15.66,4.77,2.07,4.77,4.34s-1.1,3.24-3.36,3.24h-41.65c-2.3,0-3.49-1.1-3.49-3.24s1.34-3.8,3.92-4.34c3.77-.55,6.28-1.74,7.35-3.57a8.87,8.87,0,0,0,1.65-4.67V222.76c0-5-.31-8.45-1-10.32s-2.26-2.78-4.87-3a21.71,21.71,0,0,1-2.48-.36c-2.28-.64-2.38-3.21-1.22-4.86.86-1.08,2-1.18,3.15-1.53,5.63-1.6,16.76-5,23.41-13.63.62-.74,1-1.5,1.48-1.93,2.28-2.49,4.11-.67,4.33,2.17.13,1.61,0,3.34,0,5Z" transform="translate(-26.65 -63)"/><path class="cls-4" d="M1022.63,198.06c-2.93,0-4.87.12-6,.55a3.24,3.24,0,0,0-2.14,2.39,34.94,34.94,0,0,0-.47,6.4v25.95A170.09,170.09,0,0,1,1013,253.7a39.18,39.18,0,0,1-6.18,17c-5.06,7.89-17.94,10.94-24.64,3.34-4.69-5.41-5.41-16.14-.66-21.74,3-3.71,10.05-5.77,13.08-1,2.51,4,2.7,8.53,4.56,12.51,1.61,3.27,4.08,0,5-1.91a42.48,42.48,0,0,0,2.49-10.6c1.85-14,1-28.59,1-42.69a32.89,32.89,0,0,0-.53-6.7,4.22,4.22,0,0,0-1.95-2.81,17.29,17.29,0,0,0-5.19-1.75,4,4,0,0,1-3.26-6.47,3,3,0,0,1,2.28-1.2h67.61a2.77,2.77,0,0,1,2.27,1.2c2,2.47.65,6.47-2.69,6.47a22.77,22.77,0,0,0-5.86,1.65,3.73,3.73,0,0,0-1.94,2.59,35.5,35.5,0,0,0-.43,7v49a31.66,31.66,0,0,0,.43,6.59,3.92,3.92,0,0,0,1.94,2.71c1,.64,2.83,1.08,5.42,1.53,4.77,0,5.52,7.7,1,7.7h-39.06c-4.77,0-3.57-7.7.43-7.7a25,25,0,0,0,5.75-1.41,3.76,3.76,0,0,0,2-2.71,31.19,31.19,0,0,0,.44-6.71V204.44a20.22,20.22,0,0,0-.32-4.55,2.11,2.11,0,0,0-1.86-1.49,28.71,28.71,0,0,0-5.4-.34Z" transform="translate(-26.65 -63)"/><path class="cls-4" d="M948.2,237.36c0-5.3-.56-7.9-1.62-7.9-.65,0-4.12,2.37-10.5,7.36-5.2,4.12-7.81,8.84-7.81,14.2a13.43,13.43,0,0,0,2.17,7.66,6.88,6.88,0,0,0,5.74,3.28,11.84,11.84,0,0,0,6.07-2.09,13.45,13.45,0,0,0,4.55-5.08,22.08,22.08,0,0,0,1.4-8.43Zm21.07,12.35a43.25,43.25,0,0,0,.66,8.77c.45,1.94,1.43,2.79,2.71,2.79,2.57,0,7.79-4.86,9.54-6.48a4.65,4.65,0,0,1,2.8-1.28c1.27,0-3.25,4.53-3.25,6.36,0,1.19,1.19,1.19.32,2.61A45.75,45.75,0,0,1,978,267c-5.41,5.62-10.71,8.55-16.14,8.55a9.72,9.72,0,0,1-6.6-2,17,17,0,0,1-4.2-7,36.43,36.43,0,0,0-1.29-3.48c-.69-.95-1.09-1.06-1.82-.29s-2,1.83-3.81,3.66a44.85,44.85,0,0,1-9.33,7.58c-12.43,7.68-26.79.65-26.79-15.17,0-11.33,7-18.48,15.88-23.91l21.87-13.32c2.91-1.84,2.48-1.4,2.48-4.77v-7.67c0-4.67.21-14.85-6.61-14.85-4.32,0-7.79,4-10.51,11.82a32.41,32.41,0,0,1-2.37,5.86c-2.48,4.18-20.45,12.87-20.45,3.22,0-6.17,5.52-13.63,9.94-17.41,7.38-6.6,16.49-10,27.39-10,15,0,23.68,5.87,23.68,21Z" transform="translate(-26.65 -63)"/><path class="cls-4" d="M854.93,256.31a62.85,62.85,0,0,0,.41,7.45,6.9,6.9,0,0,0,2.29,4c1.17,1,3.15,1.43,5.85,1.43,4.64,0,8-1.56,10.38-4.55,2.29-3.16,3.36-7.26,3.36-12.46,0-3.79-.54-6.8-1.85-9.2a19.07,19.07,0,0,0-6.06-6.72,9.39,9.39,0,0,0-4.66-2.26,28.09,28.09,0,0,0-6.18-.45c-1.48,0-2.47.45-2.88,1.33a10.84,10.84,0,0,0-.66,4.52Zm0-35.82a29.66,29.66,0,0,0,.22,4.09,1.7,1.7,0,0,0,1.08,1.29,17.55,17.55,0,0,0,3.56.23c9.28,0,14-5.29,14-15.71,0-4.2-1.11-7.55-3-9.93a10.18,10.18,0,0,0-8.33-3.58c-3.35,0-5.61.65-6.81,1.94-.44.33-.66,2.52-.66,6.49Zm-21.64-5a93.35,93.35,0,0,0-.42-11.56c-.23-2.16-1-3.69-2.07-4.45s-3-1.51-5.85-2.07c-2.15-.3-3.47-1.49-3.47-3.57-.1-2.57,1.54-3.87,4.56-3.87l37,.1c14.63,0,32.78,2.42,32.78,21q0,16.58-24,18.53c14.29.56,27.38,5.33,27.38,22,0,18.49-15.7,24.59-30.74,24.59-14.6,0-29.3-.22-43.91-.22a2.89,2.89,0,0,1-2.17-.89,3.68,3.68,0,0,1-.88-2.49c0-2.5,1.2-3.78,3.47-4.09,2.83-.34,4.78-1,6-2a7.38,7.38,0,0,0,2.05-4.66c.24-2.06.33-5.85.33-11.38Z" transform="translate(-26.65 -63)"/><path class="cls-9" d="M541.76,445.66h60.66v86.59H584.94V460.31H558.89v37q0,15.9-1.07,22.18a15.9,15.9,0,0,1-5.16,9.81q-4.11,3.51-12.84,3.51-3.09,0-11.17-.59V518.66l3.9.06q5.49,0,7.38-1.47c1.26-1,1.89-3.41,1.89-7.27l-.06-14.88Z" transform="translate(-26.65 -63)"/><polygon class="cls-9" points="593.78 469.25 593.78 382.66 657.97 382.66 657.97 397.31 611.26 397.31 611.26 416.51 654.72 416.51 654.72 431.1 611.26 431.1 611.26 454.66 659.63 454.66 659.63 469.25 593.78 469.25"/><polygon class="cls-9" points="697.4 469.25 697.4 397.31 671.72 397.31 671.72 382.66 740.52 382.66 740.52 397.31 714.89 397.31 714.89 469.25 697.4 469.25"/><path class="cls-9" d="M1121.88,549.5H1084.4V521.21h2.81c23.45,0,42.57-10.2,45.88-27.28h28V673.14h-39.25Z" transform="translate(-26.65 -63)"/><path class="cls-9" d="M1018,672.59h-21.9l-28-41.15v41.15H946.33V597.66H968l28.26,41.45V597.66H1018Zm30.67-64.5q12.21,0,18.62,6.48a21.94,21.94,0,0,1,6.42,16,22.63,22.63,0,0,1-6.36,16.26q-6.37,6.64-18.68,6.64-11.82,0-18.3-6.59a23.25,23.25,0,0,1,.05-32.28q6.54-6.55,18.25-6.56m23.15,62.2h-44.36V657.92h44.36Zm-23-28.88a6.18,6.18,0,0,0,5.44-2.5q1.77-2.5,1.77-8.18c0-3.72-.56-6.39-1.69-8a6,6,0,0,0-5.32-2.45c-2.55,0-4.42.82-5.59,2.45s-1.77,4.38-1.77,8.23q0,10.49,7.16,10.48" transform="translate(-26.65 -63)"/></svg>